<svg width="591" height="580" viewBox="0 0 591 580" fill="none" xmlns="http://www.w3.org/2000/svg">
<path fill-rule="evenodd" clip-rule="evenodd" d="M328.256 0.0491798C404.824 2.07033 461.705 65.4483 511.523 123.632C556.546 176.216 591.073 237.689 591 306.916C590.926 376.073 561.398 442.315 511.134 489.811C462.217 536.035 394.831 545.343 328.256 555.195C243.79 567.696 149.74 605.137 81.8533 553.342C10.5636 498.951 -7.93113 395.942 2.84136 306.916C12.5876 226.372 76.0293 169.354 135.053 113.695C191.564 60.4048 250.613 -2.00039 328.256 0.0491798Z" fill="white"/>
<path fill-rule="evenodd" clip-rule="evenodd" d="M216.53 93.1018C212.591 107.615 207.459 140.237 212.696 145.354H245.831C245.834 145.296 245.837 145.237 245.841 145.178C258.122 143.819 267.674 133.407 267.674 120.763V96.7693C267.674 83.2022 256.675 72.2039 243.108 72.2039H240.823C228.502 72.2039 218.3 81.2743 216.53 93.1018Z" fill="#191847"/>
<path fill-rule="evenodd" clip-rule="evenodd" d="M254.805 116.182C260.07 110.002 263.634 102.428 263.038 93.9419C261.323 69.4903 227.285 74.8693 220.664 87.2104C214.043 99.5515 214.83 130.856 223.387 133.061C226.799 133.941 234.069 131.786 241.468 127.327L236.824 160.182H264.246L254.805 116.182Z" fill="#D4A181"/>
<path fill-rule="evenodd" clip-rule="evenodd" d="M247.393 112.051C246.129 125.623 246.635 141.121 250.401 144.8H283.535C285.382 112.724 267.539 125.145 267.539 94.9444C266.427 93.8575 265.376 92.7817 264.336 91.854L264.373 90.9658C258.635 79.2196 251.356 73.3465 242.535 73.3465C229.304 73.3465 225.128 79.5031 221.572 84.7301C224.231 93.8536 234.55 95.2065 243.718 100.893C244.799 100.015 246.177 99.4891 247.678 99.4891C251.149 99.4891 253.962 102.303 253.962 105.773C253.962 109.244 251.149 112.057 247.678 112.057C247.583 112.057 247.487 112.055 247.393 112.051Z" fill="#191847"/>
<path fill-rule="evenodd" clip-rule="evenodd" d="M308.34 367.089C280.93 374.755 257.282 378.589 237.395 378.589C217.509 378.589 199.037 372.686 181.98 360.879C208.803 353.01 230.893 349.076 248.25 349.076C265.606 349.076 285.636 355.08 308.34 367.089Z" fill="#416865"/>
<path fill-rule="evenodd" clip-rule="evenodd" d="M213.667 389.639C213.932 389.242 214.155 388.809 214.332 388.341C217.996 378.652 276.68 274.126 282.527 255.016H216.456C212.011 269.546 192.004 360.727 189.188 378.919C180.304 407.614 162.013 500.55 159.678 506.988C157.222 513.761 171.043 520.817 174.726 512.49C180.586 499.241 194.55 462.582 200.767 440.198C206.596 419.213 211.342 400.334 213.667 389.639Z" fill="#BA8B72"/>
<path fill-rule="evenodd" clip-rule="evenodd" d="M267.722 402.401C294.552 409.182 392.689 421.441 399.424 423.364C406.352 425.341 412.426 411.062 403.863 407.968C390.237 403.047 352.693 391.674 329.93 387.034C311.621 383.301 294.913 380.255 283.696 378.471C284.647 346.963 288.991 271.347 286.143 255.016H227.683C230.413 270.677 253.494 384.947 257.784 396.385C259.145 400.469 263.207 402.273 267.722 402.401Z" fill="#D4A181"/>
<path fill-rule="evenodd" clip-rule="evenodd" d="M403.241 404.166C406.823 403.5 409.449 403.314 411.117 403.608C413.146 403.966 416.047 404.826 419.821 406.189C419.406 408.542 415.676 429.697 408.631 469.653C402.888 470.341 400.112 468.87 400.304 465.24C400.496 461.61 400.624 458.589 400.688 456.177L392.739 424.361C392.586 423.748 392.958 423.128 393.57 422.975C393.581 422.972 393.591 422.97 393.602 422.968L398.535 421.883C400.65 418.864 401.889 416.326 402.252 414.27C402.546 412.599 402.278 410.172 401.448 406.99L401.448 406.99C401.129 405.769 401.861 404.521 403.082 404.202C403.134 404.188 403.187 404.176 403.241 404.166Z" fill="#E4E4E4"/>
<path fill-rule="evenodd" clip-rule="evenodd" d="M178.92 511.412C180.199 514.824 180.838 517.377 180.838 519.072C180.838 521.132 180.494 524.139 179.808 528.091C177.418 528.091 155.937 528.091 115.365 528.091C113.69 522.555 114.657 519.566 118.265 519.125C121.873 518.683 124.87 518.285 127.257 517.929L157.209 504.576C157.786 504.319 158.461 504.578 158.718 505.154C158.722 505.164 158.727 505.174 158.731 505.184L160.656 509.854C163.996 511.413 166.71 512.192 168.799 512.192C170.495 512.192 172.838 511.507 175.828 510.136L175.828 510.136C176.975 509.61 178.332 510.114 178.858 511.261C178.88 511.311 178.901 511.361 178.92 511.412Z" fill="#E4E4E4"/>
<path fill-rule="evenodd" clip-rule="evenodd" d="M285.954 255.016C260.193 247.645 235.818 247.645 212.83 255.016C204.831 291.507 185.397 305.99 181.98 361.937C220.828 381.239 268.816 348.171 308.806 366.994C320.232 340.665 304.236 277.256 285.954 255.016Z" fill="#50837F"/>
<path fill-rule="evenodd" clip-rule="evenodd" d="M175.125 209.668L130.013 203.515C120.989 198.495 112.687 195.097 105.107 193.32C102.974 193.258 99.5811 194.033 104.636 198.247C109.691 202.461 114.819 207.123 113.919 209.372C113.018 211.621 108.317 210.784 107.539 214.243C107.019 216.549 114.649 216.924 130.426 215.367L167.031 229.879L175.125 209.668ZM316.839 220.11L291.819 220.204C319.254 281.941 333.559 314.266 334.734 317.178C337.377 323.731 331.783 333.709 329.39 339.072C337.183 342.559 336.352 329.645 346.182 334.219C355.155 338.393 361.98 345.956 372.346 339.56C373.62 338.774 375.017 335.813 371.643 333.499C363.236 327.735 351.121 317.646 349.484 314.325C347.252 309.797 336.37 278.391 316.839 220.11Z" fill="#D4A181"/>
<path fill-rule="evenodd" clip-rule="evenodd" d="M248.308 140.758L228.718 142.063C223.894 185.711 197.615 213.281 138.779 203.947L130.962 260.156C185.954 267.263 234.181 245.247 244.065 185.637C246.624 170.206 248.644 154.147 248.308 140.758Z" fill="#AFB9C5"/>
<path fill-rule="evenodd" clip-rule="evenodd" d="M257.973 135.064L228.292 141.861C228.292 192.911 212.03 225.481 203.69 263.014H283.849C284.978 275.983 285.671 289.313 286.033 303.004H346.053C332.452 230.638 303.745 174.652 259.932 135.046H257.988L257.973 135.064Z" fill="#C5CFD6"/>
<path fill-rule="evenodd" clip-rule="evenodd" d="M271.201 190.185C273.267 221.996 272.052 246.272 267.557 263.014H283.848C281.611 237.322 277.665 213.046 271.201 190.185V190.185Z" fill="black" fill-opacity="0.1"/>
<circle cx="381" cy="3" r="3" fill="#D2C73A"/>
<circle cx="398" cy="3" r="3" fill="#D2C73A"/>
<circle cx="415" cy="3" r="3" fill="#D2C73A"/>
<circle cx="432" cy="3" r="3" fill="#D2C73A"/>
<circle cx="449" cy="3" r="3" fill="#D2C73A"/>
<circle cx="466" cy="3" r="3" fill="#D2C73A"/>
<circle cx="483" cy="3" r="3" fill="#D2C73A"/>
<circle cx="500" cy="3" r="3" fill="#D2C73A"/>
<circle cx="517" cy="3" r="3" fill="#D2C73A"/>
<circle cx="534" cy="3" r="3" fill="#D2C73A"/>
<circle cx="381" cy="20" r="3" fill="#D2C73A"/>
<circle cx="398" cy="20" r="3" fill="#D2C73A"/>
<circle cx="415" cy="20" r="3" fill="#D2C73A"/>
<circle cx="432" cy="20" r="3" fill="#D2C73A"/>
<circle cx="449" cy="20" r="3" fill="#D2C73A"/>
<circle cx="466" cy="20" r="3" fill="#D2C73A"/>
<circle cx="483" cy="20" r="3" fill="#D2C73A"/>
<circle cx="500" cy="20" r="3" fill="#D2C73A"/>
<circle cx="517" cy="20" r="3" fill="#D2C73A"/>
<circle cx="534" cy="20" r="3" fill="#D2C73A"/>
<circle cx="381" cy="37" r="3" fill="#D2C73A"/>
<circle cx="398" cy="37" r="3" fill="#D2C73A"/>
<circle cx="415" cy="37" r="3" fill="#D2C73A"/>
<circle cx="432" cy="37" r="3" fill="#D2C73A"/>
<circle cx="449" cy="37" r="3" fill="#D2C73A"/>
<circle cx="466" cy="37" r="3" fill="#D2C73A"/>
<circle cx="483" cy="37" r="3" fill="#D2C73A"/>
<circle cx="500" cy="37" r="3" fill="#D2C73A"/>
<circle cx="517" cy="37" r="3" fill="#D2C73A"/>
<circle cx="534" cy="37" r="3" fill="#D2C73A"/>
<circle cx="381" cy="54" r="3" fill="#D2C73A"/>
<circle cx="398" cy="54" r="3" fill="#D2C73A"/>
<circle cx="415" cy="54" r="3" fill="#D2C73A"/>
<circle cx="432" cy="54" r="3" fill="#D2C73A"/>
<circle cx="449" cy="54" r="3" fill="#D2C73A"/>
<circle cx="466" cy="54" r="3" fill="#D2C73A"/>
<circle cx="483" cy="54" r="3" fill="#D2C73A"/>
<circle cx="500" cy="54" r="3" fill="#D2C73A"/>
<circle cx="517" cy="54" r="3" fill="#D2C73A"/>
<circle cx="534" cy="54" r="3" fill="#D2C73A"/>
<circle cx="381" cy="71" r="3" fill="#D2C73A"/>
<circle cx="398" cy="71" r="3" fill="#D2C73A"/>
<circle cx="415" cy="71" r="3" fill="#D2C73A"/>
<circle cx="432" cy="71" r="3" fill="#D2C73A"/>
<circle cx="449" cy="71" r="3" fill="#D2C73A"/>
<circle cx="466" cy="71" r="3" fill="#D2C73A"/>
<circle cx="483" cy="71" r="3" fill="#D2C73A"/>
<circle cx="500" cy="71" r="3" fill="#D2C73A"/>
<circle cx="517" cy="71" r="3" fill="#D2C73A"/>
<circle cx="534" cy="71" r="3" fill="#D2C73A"/>
<circle cx="381" cy="88" r="3" fill="#D2C73A"/>
<circle cx="398" cy="88" r="3" fill="#D2C73A"/>
<circle cx="415" cy="88" r="3" fill="#D2C73A"/>
<circle cx="432" cy="88" r="3" fill="#D2C73A"/>
<circle cx="449" cy="88" r="3" fill="#D2C73A"/>
<circle cx="466" cy="88" r="3" fill="#D2C73A"/>
<circle cx="483" cy="88" r="3" fill="#D2C73A"/>
<circle cx="500" cy="88" r="3" fill="#D2C73A"/>
<circle cx="517" cy="88" r="3" fill="#D2C73A"/>
<circle cx="534" cy="88" r="3" fill="#D2C73A"/>
<circle cx="381" cy="105" r="3" fill="#D2C73A"/>
<circle cx="398" cy="105" r="3" fill="#D2C73A"/>
<circle cx="415" cy="105" r="3" fill="#D2C73A"/>
<circle cx="432" cy="105" r="3" fill="#D2C73A"/>
<circle cx="449" cy="105" r="3" fill="#D2C73A"/>
<circle cx="466" cy="105" r="3" fill="#D2C73A"/>
<circle cx="483" cy="105" r="3" fill="#D2C73A"/>
<circle cx="500" cy="105" r="3" fill="#D2C73A"/>
<circle cx="517" cy="105" r="3" fill="#D2C73A"/>
<circle cx="534" cy="105" r="3" fill="#D2C73A"/>
<circle cx="381" cy="122" r="3" fill="#D2C73A"/>
<circle cx="398" cy="122" r="3" fill="#D2C73A"/>
<circle cx="415" cy="122" r="3" fill="#D2C73A"/>
<circle cx="432" cy="122" r="3" fill="#D2C73A"/>
<circle cx="449" cy="122" r="3" fill="#D2C73A"/>
<circle cx="466" cy="122" r="3" fill="#D2C73A"/>
<circle cx="483" cy="122" r="3" fill="#D2C73A"/>
<circle cx="500" cy="122" r="3" fill="#D2C73A"/>
<circle cx="517" cy="122" r="3" fill="#D2C73A"/>
<circle cx="534" cy="122" r="3" fill="#D2C73A"/>
<circle cx="381" cy="139" r="3" fill="#D2C73A"/>
<circle cx="398" cy="139" r="3" fill="#D2C73A"/>
<circle cx="415" cy="139" r="3" fill="#D2C73A"/>
<circle cx="432" cy="139" r="3" fill="#D2C73A"/>
<circle cx="449" cy="139" r="3" fill="#D2C73A"/>
<circle cx="466" cy="139" r="3" fill="#D2C73A"/>
<circle cx="483" cy="139" r="3" fill="#D2C73A"/>
<circle cx="500" cy="139" r="3" fill="#D2C73A"/>
<circle cx="517" cy="139" r="3" fill="#D2C73A"/>
<circle cx="534" cy="139" r="3" fill="#D2C73A"/>
<circle cx="381" cy="156" r="3" fill="#D2C73A"/>
<circle cx="398" cy="156" r="3" fill="#D2C73A"/>
<circle cx="415" cy="156" r="3" fill="#D2C73A"/>
<circle cx="432" cy="156" r="3" fill="#D2C73A"/>
<circle cx="449" cy="156" r="3" fill="#D2C73A"/>
<circle cx="466" cy="156" r="3" fill="#D2C73A"/>
<circle cx="483" cy="156" r="3" fill="#D2C73A"/>
<circle cx="500" cy="156" r="3" fill="#D2C73A"/>
<circle cx="517" cy="156" r="3" fill="#D2C73A"/>
<circle cx="534" cy="156" r="3" fill="#D2C73A"/>
</svg>
