<svg width="156" height="308" viewBox="0 0 156 308" fill="none" xmlns="http://www.w3.org/2000/svg">
<path fill-rule="evenodd" clip-rule="evenodd" d="M64.6611 48.1823C73.1713 48.1823 76.2664 37.9938 81.1013 32.4026C84.5606 28.4022 90.4646 29.595 92.2122 23.9946C96.6066 9.91178 84.8449 0 69.5011 0C54.1573 0 43.8116 8.69293 41.5777 21.7607C39.3439 34.8285 49.3173 48.1823 64.6611 48.1823Z" fill="#191847"/>
<path fill-rule="evenodd" clip-rule="evenodd" d="M65.601 39.0855C62.1699 35.058 59.8476 30.1223 60.2356 24.5916C61.3537 8.65633 83.5362 12.1619 87.8512 20.2047C92.1661 28.2474 91.6534 48.6486 86.0767 50.0861C83.8527 50.6593 79.115 49.2551 74.2931 46.3487L77.3197 67.7609H59.4487L65.601 39.0855Z" fill="#B28B67"/>
<path fill-rule="evenodd" clip-rule="evenodd" d="M73.1347 28.8345C72.4854 28.491 71.7414 28.2959 70.9507 28.2959C68.4188 28.2959 66.3663 30.2961 66.3663 32.7636C66.3663 33.7707 66.7082 34.7 67.2851 35.4472C66.1989 37.2376 65.4575 39.1187 65.2145 41.0526C61.4496 41.0526 47.7087 26.8066 61.3973 13.4034C75.0858 0.000150681 94.8675 19.134 88.9233 20.2498C85.5057 20.8914 78.6227 24.1542 73.1347 28.8345Z" fill="#191847"/>
<path fill-rule="evenodd" clip-rule="evenodd" d="M53.4917 129.565L81.5126 221.171L95.0865 299.077H105.729L91.3864 129.565H53.4917Z" fill="#997659"/>
<path fill-rule="evenodd" clip-rule="evenodd" d="M43.4674 129.565C45.3706 179.862 43.1308 205.806 42.7048 210.376C42.2788 214.945 36.446 244.575 22.6373 300.611L33.9781 296.716C55.8015 245.323 63.2381 218.613 65.741 211.865C68.244 205.116 74.8918 177.683 85.6843 129.565H43.4674Z" fill="#B28B67"/>
<path fill-rule="evenodd" clip-rule="evenodd" d="M22.7225 296.66C21.8894 298.884 21.4729 300.547 21.4729 301.651C21.4729 302.994 21.6966 304.954 22.144 307.53C23.7017 307.53 37.7011 307.53 64.1421 307.53C65.2335 303.922 64.6035 301.974 62.2521 301.686C59.9007 301.398 57.9473 301.139 56.3921 300.907L36.8717 292.205C36.4961 292.037 36.0559 292.206 35.8884 292.582C35.8856 292.588 35.8828 292.594 35.8801 292.601L34.6254 295.645C32.4486 296.66 30.6797 297.168 29.3188 297.168C28.213 297.168 26.686 296.722 24.7377 295.828L24.7377 295.828C23.99 295.486 23.1061 295.814 22.7633 296.562C22.7485 296.594 22.7349 296.627 22.7225 296.66Z" fill="#E4E4E4"/>
<path fill-rule="evenodd" clip-rule="evenodd" d="M92.7171 296.66C91.8841 298.884 91.4676 300.547 91.4676 301.651C91.4676 302.994 91.6913 304.954 92.1386 307.53C93.6964 307.53 107.696 307.53 134.137 307.53C135.228 303.922 134.598 301.974 132.247 301.686C129.895 301.398 127.942 301.139 126.387 300.907L106.866 292.205C106.491 292.037 106.051 292.206 105.883 292.582C105.88 292.588 105.877 292.594 105.875 292.601L104.62 295.645C102.443 296.66 100.674 297.168 99.3134 297.168C98.2077 297.168 96.6807 296.722 94.7323 295.828L94.7324 295.828C93.9847 295.486 93.1007 295.814 92.758 296.562C92.7432 296.594 92.7296 296.627 92.7171 296.66Z" fill="#E4E4E4"/>
<path fill-rule="evenodd" clip-rule="evenodd" d="M49.7686 129.565L61.6826 176.237H98.0726L92.6467 129.565H49.7686Z" fill="#69A1AC"/>
<path fill-rule="evenodd" clip-rule="evenodd" d="M43.067 129.565C39.1469 141.315 38.4022 156.873 40.8331 176.237H77.9677L88.1789 129.565H43.067Z" fill="#89C5CC"/>
<path fill-rule="evenodd" clip-rule="evenodd" d="M119.052 117.742L140.145 138.32C146.283 140.938 151.312 143.828 155.232 146.992C156.113 148.055 157.073 150.093 152.925 149.181C148.777 148.269 144.374 147.497 143.594 148.846C142.815 150.195 145.112 152.262 143.671 154.027C142.71 155.204 139.48 151.46 133.98 142.796L112.046 129.864L119.052 117.742ZM25.4253 120.644L40.986 120.705C31.378 151.722 26.1911 168.179 25.4253 170.076C23.7023 174.346 27.3484 180.85 28.9077 184.345C23.8293 186.617 24.3704 178.201 17.9642 181.182C12.1169 183.902 7.66883 188.831 0.913115 184.663C0.0825392 184.15 -0.827636 182.221 1.37146 180.713C6.85022 176.956 14.7454 170.381 15.8122 168.217C17.2669 165.266 20.4713 149.408 25.4253 120.644Z" fill="#B28B67"/>
<path fill-rule="evenodd" clip-rule="evenodd" d="M69.6463 55.3496L76.0852 54.2452C87.1708 81.938 106.525 107.1 134.148 129.732L113.275 155.092C85.655 122.867 68.6301 89.6193 69.6463 55.3496Z" fill="#191847"/>
<path fill-rule="evenodd" clip-rule="evenodd" d="M41.5778 136.266H98.9138C85.6304 103.968 78.9886 76.5316 78.9886 53.9561L61.6932 51.3792C48.1006 73.2401 44.262 100.155 41.5778 136.266Z" fill="#DDE3E9"/>
<path fill-rule="evenodd" clip-rule="evenodd" d="M61.327 51.3914C61.3292 51.3873 61.3315 51.3832 61.3338 51.3792H62.4628C63.8137 51.4257 65.8713 51.5095 68.6356 51.6306L72.8148 63.5738C73.2569 78.1353 75.8385 107.481 80.5596 151.61H42.9747C43.0732 154.658 43.2357 157.734 43.4621 160.839H15.5159C19.6962 113.677 34.9619 77.1908 61.3132 51.3792L61.327 51.3914V51.3914Z" fill="#2F3676"/>
<path fill-rule="evenodd" clip-rule="evenodd" d="M45.4574 112.612C46.527 131.611 49.2052 144.708 53.4917 151.903H42.9844C42.5244 138.234 43.3487 125.137 45.4574 112.612V112.612Z" fill="black" fill-opacity="0.1"/>
<path fill-rule="evenodd" clip-rule="evenodd" d="M51.3405 128.82L69.8735 120.204V128.82H51.3405Z" fill="white" fill-opacity="0.2"/>
</svg>
